<svg width="32" height="32" viewBox="0 0 32 32" fill="none" xmlns="http://www.w3.org/2000/svg">
<rect x="1.5" y="1.5" width="29" height="29" rx="9.33333" fill="none" stroke="currentColor" stroke-width="1.6"/>
<path d="M23.7604 6.51042V11.6667H21.5113V11.0263C21.5113 10.3385 21.4854 9.8125 21.4337 9.44792C21.3821 9.07292 21.3088 8.80208 21.2137 8.63542C21.151 8.45833 21.0135 8.35938 20.801 8.33854C20.5977 8.30729 20.3385 8.29167 20.0235 8.29167H13.0573V15.5104H17.5417C17.625 15.5104 17.7057 15.5167 17.7839 15.5292C17.8698 15.5292 17.9515 15.5292 18.0281 15.5292C18.1354 15.5292 18.2302 15.5167 18.3125 15.4948C18.401 15.4648 18.4844 15.4134 18.5625 15.3406C18.6406 15.2677 18.7057 15.1562 18.7573 15.0062C18.8177 14.7982 18.8594 14.5417 18.8828 14.236C18.9271 14.0729 18.9531 13.9062 18.9609 13.7354H20.5677V18.4323H18.9609C18.9531 18.1094 18.9232 17.8594 18.8715 17.6823C18.8229 17.5104 18.7422 17.3854 18.6302 17.3073C18.5182 17.2292 18.3794 17.1875 18.2137 17.1823C18.048 17.1667 17.8281 17.1583 17.5536 17.1583H13.0573V24.0729C13.0573 24.3333 13.0937 24.5352 13.1667 24.6781C13.2396 24.8021 13.3437 24.8958 13.4792 24.9583C13.6146 25.0104 13.8021 25.0417 14.0417 25.0521C14.2813 25.0625 14.6396 25.0729 15.1172 25.0729H15.9323V26.6667C15.6094 26.6667 15.2917 26.6667 14.9792 26.6667C14.6771 26.6667 14.3542 26.6667 14.0104 26.6667C13.6979 26.6667 13.3542 26.6667 12.9792 26.6667C12.6042 26.6562 12.1937 26.6458 11.7474 26.6354C11.2656 26.6354 10.8333 26.6458 10.451 26.6667C10.0771 26.6667 9.71875 26.6667 9.375 26.6667V25.0729H11.0135C11.1875 25.0729 11.3281 25.0417 11.4349 24.9792C11.5417 24.9167 11.6172 24.8229 11.6615 24.6979C11.7057 24.5729 11.7318 24.4271 11.7396 24.2604C11.7604 24.0937 11.7708 23.875 11.7708 23.6042V9.46354C11.7708 9.20312 11.7656 8.98437 11.7552 8.80729C11.7552 8.61458 11.7239 8.48958 11.6615 8.43229C11.6094 8.35938 11.526 8.30729 11.4115 8.27604C11.3073 8.22917 11.0833 8.20833 10.7396 8.20833H8.49063V6.51042H23.7604Z" fill="currentColor"/>
</svg>
