<svg width="24" height="24" viewBox="0 0 24 24" fill="none" xmlns="http://www.w3.org/2000/svg">
<rect x="1" y="1" width="22" height="22" rx="7" fill="white" stroke="black" stroke-width="1.2"/>
<path d="M17.8203 4.88281V8.75H16.5195V8.26953C16.5195 7.75391 16.5039 7.35938 16.4727 7.08594C16.4414 6.80469 16.3867 6.60156 16.3086 6.47656C16.2383 6.34375 16.1406 6.26953 16.0156 6.25391C15.8984 6.23047 15.7539 6.21875 15.582 6.21875H9.79297V11.6328H13.1562C13.2188 11.6328 13.2773 11.6367 13.332 11.6445C13.3945 11.6445 13.4531 11.6445 13.5078 11.6445C13.6016 11.6445 13.6836 11.6367 13.7539 11.6211C13.8242 11.5977 13.8828 11.5508 13.9297 11.4805C13.9766 11.4102 14.0117 11.3125 14.0352 11.1875C14.0664 11.0547 14.0859 10.875 14.0938 10.6484H14.9258V13.8242H14.0938C14.0859 13.582 14.0625 13.3945 14.0234 13.2617C13.9844 13.1289 13.9258 13.0312 13.8477 12.9688C13.7695 12.9062 13.6758 12.8711 13.5664 12.8633C13.457 12.8477 13.3281 12.8398 13.1797 12.8398H9.79297V18.0547C9.79297 18.25 9.82031 18.4023 9.875 18.5117C9.92969 18.6133 10.0156 18.6914 10.1328 18.7461C10.25 18.793 10.4062 18.8203 10.6016 18.8281C10.7969 18.8359 11.0352 18.8398 11.3164 18.8398H11.9492V20C11.707 20 11.4688 20 11.2344 20C11.0078 20 10.7695 20 10.5195 20C10.2773 20 10.0156 20 9.73438 20C9.45312 19.9922 9.14453 19.9844 8.80859 19.9766C8.44922 19.9766 8.125 19.9805 7.83594 19.9883C7.55469 19.9883 7.28516 19.9883 7.02734 19.9883C6.77734 19.9883 6.53125 19.9922 6.28906 20C6.04688 20 5.79688 20 5.53906 20V18.8398H6.91016C7.08203 18.8398 7.21875 18.8203 7.32031 18.7812C7.42188 18.7422 7.49609 18.6836 7.54297 18.6055C7.58984 18.5273 7.61719 18.4297 7.625 18.3125C7.64062 18.1953 7.64844 18.0586 7.64844 17.9023V7.09766C7.64844 6.90234 7.64453 6.73828 7.63672 6.60547C7.63672 6.46484 7.61328 6.35547 7.56641 6.27734C7.51953 6.19141 7.44531 6.13281 7.34375 6.10156C7.24219 6.0625 7.09766 6.04297 6.91016 6.04297H5.60938V4.88281H17.8203Z" fill="currentColor"/>
</svg>
